#tb 0: 1/50
#media_type 0: video
#codec_id 0: rawvideo
#dimensions 0: 176x128
#sar 0: 0/1
0,          0,          0,        1,    67584, 0x5eae629b
0,          1,          1,        1,    67584, 0x32591227
0,          2,          2,        1,    67584, 0x4e4424c7
0,          3,          3,        1,    67584, 0x70db0134
0,          4,          4,        1,    67584, 0x3550ed0b
0,          5,          5,        1,    67584, 0x86fe3eef
0,          6,          6,        1,    67584, 0x3414bb33
0,          7,          7,        1,    67584, 0x667bfb91
0,          8,          8,        1,    67584, 0x6e1a4ccb
0,          9,          9,        1,    67584, 0xf723f9ae
0,         10,         10,        1,    67584, 0x88481d5d
